<svg width="118" height="44" viewBox="0 0 118 44" fill="none" xmlns="http://www.w3.org/2000/svg">
<path d="M14.4683 33L7.89844 9.86279H7.70068C7.75928 10.4634 7.81787 11.2764 7.87646 12.3018C7.94971 13.3271 8.01562 14.4331 8.07422 15.6196C8.13281 16.8062 8.16211 17.9487 8.16211 19.0474V33H0.47168V0.875977H12.0293L18.731 23.6836H18.9067L25.4766 0.875977H37.0562V33H29.0801V18.9155C29.0801 17.9048 29.0947 16.8208 29.124 15.6636C29.168 14.4917 29.2119 13.3931 29.2559 12.3677C29.3145 11.3276 29.3657 10.5073 29.4097 9.90674H29.2119L22.73 33H14.4683ZM55.623 7.66553C58.7725 7.66553 61.2334 8.44922 63.0059 10.0166C64.7783 11.5693 65.6646 13.7886 65.6646 16.6743V33H59.71L58.062 29.7041H57.8862C57.1831 30.583 56.458 31.3008 55.7109 31.8574C54.9785 32.3994 54.1362 32.7949 53.1841 33.0439C52.2319 33.3076 51.0674 33.4395 49.6904 33.4395C48.2549 33.4395 46.9658 33.1465 45.8232 32.5605C44.6807 31.9746 43.7798 31.0884 43.1206 29.9019C42.4614 28.7153 42.1318 27.2139 42.1318 25.3975C42.1318 22.7314 43.0547 20.7539 44.9004 19.4648C46.7461 18.1758 49.4194 17.4507 52.9204 17.2896L57.0732 17.1577V16.8062C57.0732 15.6929 56.7949 14.9019 56.2383 14.4331C55.6963 13.9644 54.9639 13.73 54.041 13.73C53.0596 13.73 51.9609 13.9058 50.7451 14.2573C49.5439 14.5942 48.3354 15.0337 47.1196 15.5757L44.6367 9.90674C46.0723 9.17432 47.6982 8.61768 49.5146 8.23682C51.3311 7.85596 53.3672 7.66553 55.623 7.66553ZM57.1172 21.8818L55.1396 21.9697C53.5576 22.0283 52.4443 22.3066 51.7998 22.8047C51.1699 23.2881 50.855 23.9839 50.855 24.8921C50.855 25.7417 51.082 26.3716 51.5361 26.7817C51.9902 27.1772 52.5908 27.375 53.3379 27.375C54.3779 27.375 55.2642 27.0454 55.9966 26.3862C56.7437 25.7271 57.1172 24.8701 57.1172 23.8154V21.8818ZM89.6367 8.10498H98.6895L102.908 22.3872C102.967 22.5923 103.025 22.8486 103.084 23.1562C103.143 23.4492 103.194 23.7642 103.238 24.1011C103.282 24.438 103.311 24.7676 103.326 25.0898H103.501C103.575 24.4893 103.655 23.9692 103.743 23.5298C103.846 23.0757 103.941 22.7095 104.029 22.4312L108.357 8.10498H117.125L107.281 34.582C106.519 36.6035 105.633 38.2954 104.622 39.6577C103.626 41.0347 102.388 42.0674 100.909 42.7559C99.4438 43.459 97.6201 43.8105 95.4375 43.8105C94.6465 43.8105 93.9653 43.7666 93.394 43.6787C92.8374 43.6055 92.3467 43.5249 91.9219 43.437V36.6914C92.2441 36.75 92.6396 36.8086 93.1084 36.8672C93.5771 36.9258 94.0679 36.9551 94.5806 36.9551C95.5327 36.9551 96.3018 36.7646 96.8877 36.3838C97.4883 36.0029 97.979 35.4976 98.3599 34.8677C98.7407 34.2524 99.0703 33.5859 99.3486 32.8682L99.4365 32.6484L89.6367 8.10498Z" fill="#181818"/>
<path d="M86.5386 7.66553C87.0073 7.66553 87.498 7.70215 88.0107 7.77539C88.5234 7.83398 88.9043 7.88525 89.1533 7.9292L88.3843 16.0371C88.106 15.9639 87.7471 15.9053 87.3076 15.8613C86.8682 15.8027 86.2529 15.7734 85.4619 15.7734C84.9199 15.7734 84.3413 15.8247 83.7261 15.9272C83.1108 16.0298 82.5249 16.2495 81.9683 16.5864C81.4263 16.9087 80.9795 17.4067 80.6279 18.0806C80.2764 18.7397 80.1006 19.6333 80.1006 20.7612V33H71.5093V8.10498H77.9033L79.2437 12.082H79.6611C80.1152 11.2617 80.6938 10.522 81.397 9.86279C82.1147 9.18896 82.9131 8.6543 83.792 8.25879C84.6855 7.86328 85.6011 7.66553 86.5386 7.66553Z" fill="#FD6E0A"/>
</svg>
